<?xml version="1.0" encoding="iso-8859-1" standalone="no"?>
<!DOCTYPE svg PUBLIC "-//W3C//DTD SVG 20010904//EN" 
  "http://www.w3.org/TR/2001/REC-SVG-20010904/DTD/svg10.dtd" [ 
<!ENTITY ff "font-family:">
<!ENTITY fs "font-size:">
<!ENTITY fw "font-weight:">
<!ENTITY fst "font-style:">
<!ENTITY sw "stroke-width:">
<!ENTITY as "text-anchor:start;">
<!ENTITY am "text-anchor:middle;">
<!ENTITY ae "text-anchor:end;">
]>
<!-- Generated by ploticus (http://ploticus.sourceforge.net/)
Title: ploticus-graphic
SVG Driver by B.Traill
-->
<svg xmlns="http://www.w3.org/2000/svg" 
  viewBox="0 0 466.80 304.24"      
  xmlns:xlink="http://www.w3.org/1999/xlink"
>
<g transform="translate(4.80 ,-44.16)" >                                                         

<g style="fill:#000000;stroke:#000000;&ff;Helvetica;">
<g style="&sw;0.6;&fs;10pt;&as;">
<path d="M0 360l0 -360l504 0l0 360z" fill="#ffffff" stroke="#ffffff"/>
<text x="72.00" y="70.56" stroke="none">Memory Results</text>
</g><g style="&sw;0.6;&fs;10pt;&am;">
<text x="252.00" y="316.80" stroke="none">Memory (Kbytes)</text>
</g><g style="&sw;0.6;&fs;8pt;&am;">
<text x="72.00" y="303.04" stroke="none">0</text>
</g><g style="&sw;0.5;&fs;8pt;&am;">
<path d="M72 293l0 -5.04" fill="none"/>
<text x="162.00" y="303.04" stroke="none">50000</text>
<path d="M162 293l0 -5.04" fill="none"/>
<text x="252.00" y="303.04" stroke="none">100000</text>
<path d="M252 293l0 -5.04" fill="none"/>
<text x="342.00" y="303.04" stroke="none">150000</text>
<path d="M342 293l0 -5.04" fill="none"/>
<text x="432.00" y="303.04" stroke="none">200000</text>
<path d="M432 293l0 -5.04" fill="none"/>
<path d="M72 288l360 0" fill="none"/>
</g><g style="&sw;0.5;&fs;8pt;&ae;">
<text x="61.20" y="96.60" stroke="none">binaryTrees</text>
<path d="M66.96 93.6l5.04 0" fill="none"/>
<text x="61.20" y="118.20" stroke="none">fannkuch</text>
<path d="M66.96 115.2l5.04 0" fill="none"/>
<text x="61.20" y="139.80" stroke="none">mandelbrot</text>
<path d="M66.96 136.8l5.04 0" fill="none"/>
<text x="61.20" y="161.40" stroke="none">nBody</text>
<path d="M66.96 158.4l5.04 0" fill="none"/>
<text x="61.20" y="183.00" stroke="none">nsieve</text>
<path d="M66.96 180l5.04 0" fill="none"/>
<text x="61.20" y="204.60" stroke="none">partialSums</text>
<path d="M66.96 201.6l5.04 0" fill="none"/>
<text x="61.20" y="226.20" stroke="none">recursive</text>
<path d="M66.96 223.2l5.04 0" fill="none"/>
<text x="61.20" y="247.80" stroke="none">spectralNorm</text>
<path d="M66.96 244.8l5.04 0" fill="none"/>
<text x="61.20" y="269.40" stroke="none">sumFile</text>
<path d="M66.96 266.4l5.04 0" fill="none"/>
<path d="M72 288l0 -216" fill="none"/>
<path d="M72 91.8l94.05 0l0 -3.6l-94.05 0z" fill="#ff0000" stroke="#ff0000"/>
<path d="M72 91.8l94.05 0l0 -3.6l-94.05 0l0 3.6" fill="none"/>
<path d="M72 113.4l5.458 0l0 -3.6l-5.458 0z" fill="#ff0000" stroke="#ff0000"/>
<path d="M72 113.4l5.458 0l0 -3.6l-5.458 0l0 3.6" fill="none"/>
<path d="M72 135l5.371 0l0 -3.6l-5.371 0z" fill="#ff0000" stroke="#ff0000"/>
<path d="M72 135l5.371 0l0 -3.6l-5.371 0l0 3.6" fill="none"/>
<path d="M72 156.6l5.688 0l0 -3.6l-5.688 0z" fill="#ff0000" stroke="#ff0000"/>
<path d="M72 156.6l5.688 0l0 -3.6l-5.688 0l0 3.6" fill="none"/>
<path d="M72 178.2l293 0l0 -3.6l-293 0z" fill="#ff0000" stroke="#ff0000"/>
<path d="M72 178.2l293 0l0 -3.6l-293 0l0 3.6" fill="none"/>
<path d="M72 199.8l6.372 0l0 -3.6l-6.372 0z" fill="#ff0000" stroke="#ff0000"/>
<path d="M72 199.8l6.372 0l0 -3.6l-6.372 0l0 3.6" fill="none"/>
<path d="M72 221.4l6.278 0l0 -3.6l-6.278 0z" fill="#ff0000" stroke="#ff0000"/>
<path d="M72 221.4l6.278 0l0 -3.6l-6.278 0l0 3.6" fill="none"/>
<path d="M72 243l6.005 0l0 -3.6l-6.005 0z" fill="#ff0000" stroke="#ff0000"/>
<path d="M72 243l6.005 0l0 -3.6l-6.005 0l0 3.6" fill="none"/>
<path d="M72 264.6l5.522 0l0 -3.6l-5.522 0z" fill="#ff0000" stroke="#ff0000"/>
<path d="M72 264.6l5.522 0l0 -3.6l-5.522 0l0 3.6" fill="none"/>
<path d="M72 95.4l174.8 0l0 -3.6l-174.8 0z" fill="#ffff00" stroke="#ffff00"/>
<path d="M72 95.4l174.8 0l0 -3.6l-174.8 0l0 3.6" fill="none"/>
<path d="M72 117l37.69 0l0 -3.6l-37.69 0z" fill="#ffff00" stroke="#ffff00"/>
<path d="M72 117l37.69 0l0 -3.6l-37.69 0l0 3.6" fill="none"/>
<path d="M72 138.6l41.42 0l0 -3.6l-41.42 0z" fill="#ffff00" stroke="#ffff00"/>
<path d="M72 138.6l41.42 0l0 -3.6l-41.42 0l0 3.6" fill="none"/>
<path d="M72 160.2l41.34 0l0 -3.6l-41.34 0z" fill="#ffff00" stroke="#ffff00"/>
<path d="M72 160.2l41.34 0l0 -3.6l-41.34 0l0 3.6" fill="none"/>
<path d="M72 181.8l327.3 0l0 -3.6l-327.3 0z" fill="#ffff00" stroke="#ffff00"/>
<path d="M72 181.8l327.3 0l0 -3.6l-327.3 0l0 3.6" fill="none"/>
<path d="M72 203.4l41.71 0l0 -3.6l-41.71 0z" fill="#ffff00" stroke="#ffff00"/>
<path d="M72 203.4l41.71 0l0 -3.6l-41.71 0l0 3.6" fill="none"/>
<path d="M72 225l47.4 0l0 -3.6l-47.4 0z" fill="#ffff00" stroke="#ffff00"/>
<path d="M72 225l47.4 0l0 -3.6l-47.4 0l0 3.6" fill="none"/>
<path d="M72 246.6l40.77 0l0 -3.6l-40.77 0z" fill="#ffff00" stroke="#ffff00"/>
<path d="M72 246.6l40.77 0l0 -3.6l-40.77 0l0 3.6" fill="none"/>
<path d="M72 268.2l48.25 0l0 -3.6l-48.25 0z" fill="#ffff00" stroke="#ffff00"/>
<path d="M72 268.2l48.25 0l0 -3.6l-48.25 0l0 3.6" fill="none"/>
<path d="M72 99l64.34 0l0 -3.6l-64.34 0z" fill="#0066cc" stroke="#0066cc"/>
<path d="M72 99l64.34 0l0 -3.6l-64.34 0l0 3.6" fill="none"/>
<path d="M72 120.6l4.997 0l0 -3.6l-4.997 0z" fill="#0066cc" stroke="#0066cc"/>
<path d="M72 120.6l4.997 0l0 -3.6l-4.997 0l0 3.6" fill="none"/>
<path d="M72 142.2l5.148 0l0 -3.6l-5.148 0z" fill="#0066cc" stroke="#0066cc"/>
<path d="M72 142.2l5.148 0l0 -3.6l-5.148 0l0 3.6" fill="none"/>
<path d="M72 163.8l5.249 0l0 -3.6l-5.249 0z" fill="#0066cc" stroke="#0066cc"/>
<path d="M72 163.8l5.249 0l0 -3.6l-5.249 0l0 3.6" fill="none"/>
<path d="M72 185.4l292.2 0l0 -3.6l-292.2 0z" fill="#0066cc" stroke="#0066cc"/>
<path d="M72 185.4l292.2 0l0 -3.6l-292.2 0l0 3.6" fill="none"/>
<path d="M72 207l5.839 0l0 -3.6l-5.839 0z" fill="#0066cc" stroke="#0066cc"/>
<path d="M72 207l5.839 0l0 -3.6l-5.839 0l0 3.6" fill="none"/>
<path d="M72 228.6l5.868 0l0 -3.6l-5.868 0z" fill="#0066cc" stroke="#0066cc"/>
<path d="M72 228.6l5.868 0l0 -3.6l-5.868 0l0 3.6" fill="none"/>
<path d="M72 250.2l5.184 0l0 -3.6l-5.184 0z" fill="#0066cc" stroke="#0066cc"/>
<path d="M72 250.2l5.184 0l0 -3.6l-5.184 0l0 3.6" fill="none"/>
<path d="M72 271.8l4.982 0l0 -3.6l-4.982 0z" fill="#0066cc" stroke="#0066cc"/>
<path d="M72 271.8l4.982 0l0 -3.6l-4.982 0l0 3.6" fill="none"/>
<path d="M72 102.6l72.81 0l0 -3.6l-72.81 0z" fill="#00b200" stroke="#00b200"/>
<path d="M72 102.6l72.81 0l0 -3.6l-72.81 0l0 3.6" fill="none"/>
<path d="M72 124.2l4.968 0l0 -3.6l-4.968 0z" fill="#00b200" stroke="#00b200"/>
<path d="M72 124.2l4.968 0l0 -3.6l-4.968 0l0 3.6" fill="none"/>
<path d="M72 145.8l5.22 0l0 -3.6l-5.22 0z" fill="#00b200" stroke="#00b200"/>
<path d="M72 145.8l5.22 0l0 -3.6l-5.22 0l0 3.6" fill="none"/>
<path d="M72 167.4l5.314 0l0 -3.6l-5.314 0z" fill="#00b200" stroke="#00b200"/>
<path d="M72 167.4l5.314 0l0 -3.6l-5.314 0l0 3.6" fill="none"/>
<path d="M72 189l292.3 0l0 -3.6l-292.3 0z" fill="#00b200" stroke="#00b200"/>
<path d="M72 189l292.3 0l0 -3.6l-292.3 0l0 3.6" fill="none"/>
<path d="M72 210.6l6.005 0l0 -3.6l-6.005 0z" fill="#00b200" stroke="#00b200"/>
<path d="M72 210.6l6.005 0l0 -3.6l-6.005 0l0 3.6" fill="none"/>
<path d="M72 232.2l5.702 0l0 -3.6l-5.702 0z" fill="#00b200" stroke="#00b200"/>
<path d="M72 232.2l5.702 0l0 -3.6l-5.702 0l0 3.6" fill="none"/>
<path d="M72 253.8l5.436 0l0 -3.6l-5.436 0z" fill="#00b200" stroke="#00b200"/>
<path d="M72 253.8l5.436 0l0 -3.6l-5.436 0l0 3.6" fill="none"/>
<path d="M72 275.4l5.314 0l0 -3.6l-5.314 0z" fill="#00b200" stroke="#00b200"/>
<path d="M72 275.4l5.314 0l0 -3.6l-5.314 0l0 3.6" fill="none"/>
<path d="M201.6 334l0 -7.2l7.2 0l0 7.2z" fill="#ff0000" stroke="#ff0000"/>
</g><g style="&sw;0.5;&fs;8pt;&as;">
<text x="216.00" y="334.00" stroke="none">C++</text>
<path d="M249.6 334l0 -7.2l7.2 0l0 7.2z" fill="#ffff00" stroke="#ffff00"/>
<text x="264.00" y="334.00" stroke="none">Mono</text>
<path d="M301.6 334l0 -7.2l7.2 0l0 7.2z" fill="#0066cc" stroke="#0066cc"/>
<text x="316.00" y="334.00" stroke="none">plain-C</text>
<path d="M365.6 334l0 -7.2l7.2 0l0 7.2z" fill="#00b200" stroke="#00b200"/>
<text x="380.00" y="334.00" stroke="none">Vala</text>
</g></g>
</g>
</svg>
