<?xml version="1.0" encoding="iso-8859-1" standalone="no"?>
<!DOCTYPE svg PUBLIC "-//W3C//DTD SVG 20010904//EN" 
  "http://www.w3.org/TR/2001/REC-SVG-20010904/DTD/svg10.dtd" [ 
<!ENTITY ff "font-family:">
<!ENTITY fs "font-size:">
<!ENTITY fw "font-weight:">
<!ENTITY fst "font-style:">
<!ENTITY sw "stroke-width:">
<!ENTITY as "text-anchor:start;">
<!ENTITY am "text-anchor:middle;">
<!ENTITY ae "text-anchor:end;">
]>
<!-- Generated by ploticus (http://ploticus.sourceforge.net/)
Title: ploticus-graphic
SVG Driver by B.Traill
-->
<svg xmlns="http://www.w3.org/2000/svg" 
  viewBox="0 0 464.80 304.24"      
  xmlns:xlink="http://www.w3.org/1999/xlink"
>
<g transform="translate(4.80 ,-44.16)" >                                                         

<g style="fill:#000000;stroke:#000000;&ff;Helvetica;">
<g style="&sw;0.6;&fs;10pt;&as;">
<path d="M0 360l0 -360l504 0l0 360z" fill="#ffffff" stroke="#ffffff"/>
<text x="72.00" y="70.56" stroke="none">Size Results</text>
</g><g style="&sw;0.6;&fs;10pt;&am;">
<text x="252.00" y="316.80" stroke="none">Size (GZip bytes)</text>
</g><g style="&sw;0.6;&fs;8pt;&am;">
<text x="72.00" y="303.04" stroke="none">0</text>
</g><g style="&sw;0.5;&fs;8pt;&am;">
<path d="M72 293l0 -5.04" fill="none"/>
<text x="117.00" y="303.04" stroke="none">2500</text>
<path d="M117 293l0 -5.04" fill="none"/>
<text x="162.00" y="303.04" stroke="none">5000</text>
<path d="M162 293l0 -5.04" fill="none"/>
<text x="207.00" y="303.04" stroke="none">7500</text>
<path d="M207 293l0 -5.04" fill="none"/>
<text x="252.00" y="303.04" stroke="none">10000</text>
<path d="M252 293l0 -5.04" fill="none"/>
<text x="297.00" y="303.04" stroke="none">12500</text>
<path d="M297 293l0 -5.04" fill="none"/>
<text x="342.00" y="303.04" stroke="none">15000</text>
<path d="M342 293l0 -5.04" fill="none"/>
<text x="387.00" y="303.04" stroke="none">17500</text>
<path d="M387 293l0 -5.04" fill="none"/>
<text x="432.00" y="303.04" stroke="none">20000</text>
<path d="M432 293l0 -5.04" fill="none"/>
<path d="M72 288l360 0" fill="none"/>
</g><g style="&sw;0.5;&fs;8pt;&ae;">
<text x="61.20" y="96.60" stroke="none">binaryTrees</text>
<path d="M66.96 93.6l5.04 0" fill="none"/>
<text x="61.20" y="118.20" stroke="none">fannkuch</text>
<path d="M66.96 115.2l5.04 0" fill="none"/>
<text x="61.20" y="139.80" stroke="none">mandelbrot</text>
<path d="M66.96 136.8l5.04 0" fill="none"/>
<text x="61.20" y="161.40" stroke="none">nBody</text>
<path d="M66.96 158.4l5.04 0" fill="none"/>
<text x="61.20" y="183.00" stroke="none">nsieve</text>
<path d="M66.96 180l5.04 0" fill="none"/>
<text x="61.20" y="204.60" stroke="none">partialSums</text>
<path d="M66.96 201.6l5.04 0" fill="none"/>
<text x="61.20" y="226.20" stroke="none">recursive</text>
<path d="M66.96 223.2l5.04 0" fill="none"/>
<text x="61.20" y="247.80" stroke="none">spectralNorm</text>
<path d="M66.96 244.8l5.04 0" fill="none"/>
<text x="61.20" y="269.40" stroke="none">sumFile</text>
<path d="M66.96 266.4l5.04 0" fill="none"/>
<path d="M72 288l0 -216" fill="none"/>
<path d="M72 91.8l191.5 0l0 -3.6l-191.5 0z" fill="#ff0000" stroke="#ff0000"/>
<path d="M72 91.8l191.5 0l0 -3.6l-191.5 0l0 3.6" fill="none"/>
<path d="M72 113.4l83.95 0l0 -3.6l-83.95 0z" fill="#ff0000" stroke="#ff0000"/>
<path d="M72 113.4l83.95 0l0 -3.6l-83.95 0l0 3.6" fill="none"/>
<path d="M72 135l67.95 0l0 -3.6l-67.95 0z" fill="#ff0000" stroke="#ff0000"/>
<path d="M72 135l67.95 0l0 -3.6l-67.95 0l0 3.6" fill="none"/>
<path d="M72 156.6l85.43 0l0 -3.6l-85.43 0z" fill="#ff0000" stroke="#ff0000"/>
<path d="M72 156.6l85.43 0l0 -3.6l-85.43 0l0 3.6" fill="none"/>
<path d="M72 178.2l48.2 0l0 -3.6l-48.2 0z" fill="#ff0000" stroke="#ff0000"/>
<path d="M72 178.2l48.2 0l0 -3.6l-48.2 0l0 3.6" fill="none"/>
<path d="M72 199.8l54.56 0l0 -3.6l-54.56 0z" fill="#ff0000" stroke="#ff0000"/>
<path d="M72 199.8l54.56 0l0 -3.6l-54.56 0l0 3.6" fill="none"/>
<path d="M72 221.4l113.2 0l0 -3.6l-113.2 0z" fill="#ff0000" stroke="#ff0000"/>
<path d="M72 221.4l113.2 0l0 -3.6l-113.2 0l0 3.6" fill="none"/>
<path d="M72 243l100.3 0l0 -3.6l-100.3 0z" fill="#ff0000" stroke="#ff0000"/>
<path d="M72 243l100.3 0l0 -3.6l-100.3 0l0 3.6" fill="none"/>
<path d="M72 264.6l45.63 0l0 -3.6l-45.63 0z" fill="#ff0000" stroke="#ff0000"/>
<path d="M72 264.6l45.63 0l0 -3.6l-45.63 0l0 3.6" fill="none"/>
<path d="M72 95.4l27.7 0l0 -3.6l-27.7 0z" fill="#ffff00" stroke="#ffff00"/>
<path d="M72 95.4l27.7 0l0 -3.6l-27.7 0l0 3.6" fill="none"/>
<path d="M72 117l26.41 0l0 -3.6l-26.41 0z" fill="#ffff00" stroke="#ffff00"/>
<path d="M72 117l26.41 0l0 -3.6l-26.41 0l0 3.6" fill="none"/>
<path d="M72 138.6l24.8 0l0 -3.6l-24.8 0z" fill="#ffff00" stroke="#ffff00"/>
<path d="M72 138.6l24.8 0l0 -3.6l-24.8 0l0 3.6" fill="none"/>
<path d="M72 160.2l41.18 0l0 -3.6l-41.18 0z" fill="#ffff00" stroke="#ffff00"/>
<path d="M72 160.2l41.18 0l0 -3.6l-41.18 0l0 3.6" fill="none"/>
<path d="M72 181.8l22.61 0l0 -3.6l-22.61 0z" fill="#ffff00" stroke="#ffff00"/>
<path d="M72 181.8l22.61 0l0 -3.6l-22.61 0l0 3.6" fill="none"/>
<path d="M72 203.4l27.04 0l0 -3.6l-27.04 0z" fill="#ffff00" stroke="#ffff00"/>
<path d="M72 203.4l27.04 0l0 -3.6l-27.04 0l0 3.6" fill="none"/>
<path d="M72 225l26.68 0l0 -3.6l-26.68 0z" fill="#ffff00" stroke="#ffff00"/>
<path d="M72 225l26.68 0l0 -3.6l-26.68 0l0 3.6" fill="none"/>
<path d="M72 246.6l27.02 0l0 -3.6l-27.02 0z" fill="#ffff00" stroke="#ffff00"/>
<path d="M72 246.6l27.02 0l0 -3.6l-27.02 0l0 3.6" fill="none"/>
<path d="M72 268.2l21.33 0l0 -3.6l-21.33 0z" fill="#ffff00" stroke="#ffff00"/>
<path d="M72 268.2l21.33 0l0 -3.6l-21.33 0l0 3.6" fill="none"/>
<path d="M72 99l144.7 0l0 -3.6l-144.7 0z" fill="#0066cc" stroke="#0066cc"/>
<path d="M72 99l144.7 0l0 -3.6l-144.7 0l0 3.6" fill="none"/>
<path d="M72 120.6l71.98 0l0 -3.6l-71.98 0z" fill="#0066cc" stroke="#0066cc"/>
<path d="M72 120.6l71.98 0l0 -3.6l-71.98 0l0 3.6" fill="none"/>
<path d="M72 142.2l47.05 0l0 -3.6l-47.05 0z" fill="#0066cc" stroke="#0066cc"/>
<path d="M72 142.2l47.05 0l0 -3.6l-47.05 0l0 3.6" fill="none"/>
<path d="M72 163.8l93.96 0l0 -3.6l-93.96 0z" fill="#0066cc" stroke="#0066cc"/>
<path d="M72 163.8l93.96 0l0 -3.6l-93.96 0l0 3.6" fill="none"/>
<path d="M72 185.4l38.88 0l0 -3.6l-38.88 0z" fill="#0066cc" stroke="#0066cc"/>
<path d="M72 185.4l38.88 0l0 -3.6l-38.88 0l0 3.6" fill="none"/>
<path d="M72 207l94.1 0l0 -3.6l-94.1 0z" fill="#0066cc" stroke="#0066cc"/>
<path d="M72 207l94.1 0l0 -3.6l-94.1 0l0 3.6" fill="none"/>
<path d="M72 228.6l155.7 0l0 -3.6l-155.7 0z" fill="#0066cc" stroke="#0066cc"/>
<path d="M72 228.6l155.7 0l0 -3.6l-155.7 0l0 3.6" fill="none"/>
<path d="M72 250.2l174 0l0 -3.6l-174 0z" fill="#0066cc" stroke="#0066cc"/>
<path d="M72 250.2l174 0l0 -3.6l-174 0l0 3.6" fill="none"/>
<path d="M72 271.8l35.86 0l0 -3.6l-35.86 0z" fill="#0066cc" stroke="#0066cc"/>
<path d="M72 271.8l35.86 0l0 -3.6l-35.86 0l0 3.6" fill="none"/>
<path d="M72 102.6l313.6 0l0 -3.6l-313.6 0z" fill="#00b200" stroke="#00b200"/>
<path d="M72 102.6l313.6 0l0 -3.6l-313.6 0l0 3.6" fill="none"/>
<path d="M72 124.2l130.1 0l0 -3.6l-130.1 0z" fill="#00b200" stroke="#00b200"/>
<path d="M72 124.2l130.1 0l0 -3.6l-130.1 0l0 3.6" fill="none"/>
<path d="M72 145.8l52.94 0l0 -3.6l-52.94 0z" fill="#00b200" stroke="#00b200"/>
<path d="M72 145.8l52.94 0l0 -3.6l-52.94 0l0 3.6" fill="none"/>
<path d="M72 167.4l108.2 0l0 -3.6l-108.2 0z" fill="#00b200" stroke="#00b200"/>
<path d="M72 167.4l108.2 0l0 -3.6l-108.2 0l0 3.6" fill="none"/>
<path d="M72 189l80.41 0l0 -3.6l-80.41 0z" fill="#00b200" stroke="#00b200"/>
<path d="M72 189l80.41 0l0 -3.6l-80.41 0l0 3.6" fill="none"/>
<path d="M72 210.6l114.7 0l0 -3.6l-114.7 0z" fill="#00b200" stroke="#00b200"/>
<path d="M72 210.6l114.7 0l0 -3.6l-114.7 0l0 3.6" fill="none"/>
<path d="M72 232.2l156.7 0l0 -3.6l-156.7 0z" fill="#00b200" stroke="#00b200"/>
<path d="M72 232.2l156.7 0l0 -3.6l-156.7 0l0 3.6" fill="none"/>
<path d="M72 253.8l143.6 0l0 -3.6l-143.6 0z" fill="#00b200" stroke="#00b200"/>
<path d="M72 253.8l143.6 0l0 -3.6l-143.6 0l0 3.6" fill="none"/>
<path d="M72 275.4l80.08 0l0 -3.6l-80.08 0z" fill="#00b200" stroke="#00b200"/>
<path d="M72 275.4l80.08 0l0 -3.6l-80.08 0l0 3.6" fill="none"/>
<path d="M201.6 334l0 -7.2l7.2 0l0 7.2z" fill="#ff0000" stroke="#ff0000"/>
</g><g style="&sw;0.5;&fs;8pt;&as;">
<text x="216.00" y="334.00" stroke="none">C++</text>
<path d="M249.6 334l0 -7.2l7.2 0l0 7.2z" fill="#ffff00" stroke="#ffff00"/>
<text x="264.00" y="334.00" stroke="none">Mono</text>
<path d="M301.6 334l0 -7.2l7.2 0l0 7.2z" fill="#0066cc" stroke="#0066cc"/>
<text x="316.00" y="334.00" stroke="none">plain-C</text>
<path d="M365.6 334l0 -7.2l7.2 0l0 7.2z" fill="#00b200" stroke="#00b200"/>
<text x="380.00" y="334.00" stroke="none">Vala</text>
</g></g>
</g>
</svg>
